# xmcd CD database file
#
# Track frame offsets:
#	150
#	21421
#	62223
#	84489
#	119318
#	144435
#	185569
#	219337
#	263446
#	288314
#	321548
#	353416
#
# Disc length: 4716 seconds
#
# Revision: 0
# Processed by: cddbd v1.5.2PL0 Copyright (c) Steve Scherf et al.
# Submitted via: CDex 1.70beta2
#
DISCID=b1126a0c
DTITLE=Leon, Donna - Sanft entschlafen
DYEAR=2005
DGENRE=Hoerbuch
TTITLE0=24 Sanft entschlafen
TTITLE1=25 Sanft entschlafen
TTITLE2=26 Sanft entschlafen
TTITLE3=27 Sanft entschlafen
TTITLE4=28 Sanft entschlafen
TTITLE5=29 Sanft entschlafen
TTITLE6=30 Sanft entschlafen
TTITLE7=31 Sanft entschlafen
TTITLE8=32 Sanft entschlafen
TTITLE9=33 Sanft entschlafen
TTITLE10=34 Sanft entschlafen
TTITLE11=35 Sanft entschlafen
EXTD=YEAR: 2005
EXTT0=
EXTT1=
EXTT2=
EXTT3=
EXTT4=
EXTT5=
EXTT6=
EXTT7=
EXTT8=
EXTT9=
EXTT10=
EXTT11=
PLAYORDER=
